<mxfile host="app.diagrams.net" modified="2023-07-05T13:49:09.668Z" agent="Mozilla/5.0 (Windows NT 10.0; Win64; x64) AppleWebKit/537.36 (KHTML, like Gecko) Chrome/114.0.0.0 Safari/537.36 Edg/114.0.1823.67" etag="XVsgxUu_3l0kVArKhxHg" version="21.5.2" type="device">
  <diagram name="Page-1" id="hi5TcuYr5p_kVt8YMt_M">
    <mxGraphModel dx="1008" dy="610" grid="1" gridSize="10" guides="1" tooltips="1" connect="1" arrows="1" fold="1" page="1" pageScale="1" pageWidth="850" pageHeight="1100" math="0" shadow="0">
      <root>
        <mxCell id="0" />
        <mxCell id="1" parent="0" />
        <mxCell id="Oy3L-0guOsbr1MSNjKFe-1" value="lcluster&lt;br&gt;0" style="rounded=0;whiteSpace=wrap;html=1;" vertex="1" parent="1">
          <mxGeometry x="250" y="670" width="80" height="50" as="geometry" />
        </mxCell>
        <mxCell id="Oy3L-0guOsbr1MSNjKFe-2" value="lcluster&lt;br&gt;1" style="rounded=0;whiteSpace=wrap;html=1;" vertex="1" parent="1">
          <mxGeometry x="330" y="670" width="80" height="50" as="geometry" />
        </mxCell>
        <mxCell id="Oy3L-0guOsbr1MSNjKFe-3" value="lcluster&lt;br&gt;2" style="rounded=0;whiteSpace=wrap;html=1;" vertex="1" parent="1">
          <mxGeometry x="410" y="670" width="80" height="50" as="geometry" />
        </mxCell>
        <mxCell id="Oy3L-0guOsbr1MSNjKFe-4" value="lcluster&lt;br&gt;n" style="rounded=0;whiteSpace=wrap;html=1;" vertex="1" parent="1">
          <mxGeometry x="560" y="670" width="80" height="50" as="geometry" />
        </mxCell>
        <mxCell id="Oy3L-0guOsbr1MSNjKFe-5" value="..." style="rounded=0;whiteSpace=wrap;html=1;" vertex="1" parent="1">
          <mxGeometry x="490" y="670" width="70" height="50" as="geometry" />
        </mxCell>
        <mxCell id="Oy3L-0guOsbr1MSNjKFe-6" value="pcluster" style="rounded=0;whiteSpace=wrap;html=1;" vertex="1" parent="1">
          <mxGeometry x="400" y="770" width="80" height="60" as="geometry" />
        </mxCell>
        <mxCell id="Oy3L-0guOsbr1MSNjKFe-7" value="" style="endArrow=classic;html=1;rounded=0;exitX=0;exitY=1;exitDx=0;exitDy=0;entryX=0;entryY=0;entryDx=0;entryDy=0;" edge="1" parent="1" source="Oy3L-0guOsbr1MSNjKFe-1" target="Oy3L-0guOsbr1MSNjKFe-6">
          <mxGeometry width="50" height="50" relative="1" as="geometry">
            <mxPoint x="500" y="710" as="sourcePoint" />
            <mxPoint x="550" y="660" as="targetPoint" />
          </mxGeometry>
        </mxCell>
        <mxCell id="Oy3L-0guOsbr1MSNjKFe-8" value="" style="endArrow=classic;html=1;rounded=0;exitX=0.25;exitY=1;exitDx=0;exitDy=0;entryX=1;entryY=0;entryDx=0;entryDy=0;" edge="1" parent="1" source="Oy3L-0guOsbr1MSNjKFe-3" target="Oy3L-0guOsbr1MSNjKFe-6">
          <mxGeometry width="50" height="50" relative="1" as="geometry">
            <mxPoint x="500" y="710" as="sourcePoint" />
            <mxPoint x="550" y="660" as="targetPoint" />
          </mxGeometry>
        </mxCell>
        <mxCell id="Oy3L-0guOsbr1MSNjKFe-9" value="" style="endArrow=none;html=1;rounded=0;exitX=0.25;exitY=0;exitDx=0;exitDy=0;dashed=1;" edge="1" parent="1" source="Oy3L-0guOsbr1MSNjKFe-3">
          <mxGeometry width="50" height="50" relative="1" as="geometry">
            <mxPoint x="500" y="610" as="sourcePoint" />
            <mxPoint x="430" y="720" as="targetPoint" />
          </mxGeometry>
        </mxCell>
        <mxCell id="Oy3L-0guOsbr1MSNjKFe-10" value="pcluster" style="rounded=0;whiteSpace=wrap;html=1;" vertex="1" parent="1">
          <mxGeometry x="480" y="770" width="80" height="60" as="geometry" />
        </mxCell>
        <mxCell id="Oy3L-0guOsbr1MSNjKFe-11" value="" style="endArrow=classic;html=1;rounded=0;exitX=1;exitY=1;exitDx=0;exitDy=0;entryX=1;entryY=0;entryDx=0;entryDy=0;" edge="1" parent="1" source="Oy3L-0guOsbr1MSNjKFe-3" target="Oy3L-0guOsbr1MSNjKFe-10">
          <mxGeometry width="50" height="50" relative="1" as="geometry">
            <mxPoint x="440" y="590" as="sourcePoint" />
            <mxPoint x="490" y="540" as="targetPoint" />
          </mxGeometry>
        </mxCell>
        <mxCell id="Oy3L-0guOsbr1MSNjKFe-12" value="type&lt;br&gt;HEAD" style="rounded=0;whiteSpace=wrap;html=1;" vertex="1" parent="1">
          <mxGeometry x="60" y="570" width="70" height="30" as="geometry" />
        </mxCell>
        <mxCell id="Oy3L-0guOsbr1MSNjKFe-13" value="clusterofs&lt;br&gt;0" style="rounded=0;whiteSpace=wrap;html=1;" vertex="1" parent="1">
          <mxGeometry x="130" y="570" width="70" height="30" as="geometry" />
        </mxCell>
        <mxCell id="Oy3L-0guOsbr1MSNjKFe-14" value="blkaddr&lt;br&gt;0x233000" style="rounded=0;whiteSpace=wrap;html=1;" vertex="1" parent="1">
          <mxGeometry x="200" y="570" width="70" height="30" as="geometry" />
        </mxCell>
        <mxCell id="Oy3L-0guOsbr1MSNjKFe-15" value="0x233000" style="text;html=1;align=center;verticalAlign=middle;resizable=0;points=[];autosize=1;strokeColor=none;fillColor=none;" vertex="1" parent="1">
          <mxGeometry x="360" y="838" width="80" height="30" as="geometry" />
        </mxCell>
        <mxCell id="Oy3L-0guOsbr1MSNjKFe-16" value="type&lt;br&gt;NONHEAD" style="rounded=0;whiteSpace=wrap;html=1;" vertex="1" parent="1">
          <mxGeometry x="300" y="570" width="70" height="30" as="geometry" />
        </mxCell>
        <mxCell id="Oy3L-0guOsbr1MSNjKFe-17" value="clusterofs&lt;br&gt;0" style="rounded=0;whiteSpace=wrap;html=1;" vertex="1" parent="1">
          <mxGeometry x="370" y="570" width="70" height="30" as="geometry" />
        </mxCell>
        <mxCell id="Oy3L-0guOsbr1MSNjKFe-18" value="delta0&lt;br&gt;1" style="rounded=0;whiteSpace=wrap;html=1;" vertex="1" parent="1">
          <mxGeometry x="440" y="570" width="70" height="30" as="geometry" />
        </mxCell>
        <mxCell id="Oy3L-0guOsbr1MSNjKFe-19" value="delta1&lt;br&gt;1" style="rounded=0;whiteSpace=wrap;html=1;" vertex="1" parent="1">
          <mxGeometry x="510" y="570" width="70" height="30" as="geometry" />
        </mxCell>
        <mxCell id="Oy3L-0guOsbr1MSNjKFe-20" value="0" style="text;html=1;align=center;verticalAlign=middle;resizable=0;points=[];autosize=1;strokeColor=none;fillColor=none;" vertex="1" parent="1">
          <mxGeometry x="240" y="720" width="30" height="30" as="geometry" />
        </mxCell>
        <mxCell id="Oy3L-0guOsbr1MSNjKFe-21" value="4096" style="text;html=1;align=center;verticalAlign=middle;resizable=0;points=[];autosize=1;strokeColor=none;fillColor=none;" vertex="1" parent="1">
          <mxGeometry x="310" y="720" width="50" height="30" as="geometry" />
        </mxCell>
        <mxCell id="Oy3L-0guOsbr1MSNjKFe-22" value="" style="endArrow=classic;html=1;rounded=0;exitX=0;exitY=0;exitDx=0;exitDy=0;entryX=0;entryY=1;entryDx=0;entryDy=0;dashed=1;dashPattern=12 12;" edge="1" parent="1" source="Oy3L-0guOsbr1MSNjKFe-1" target="Oy3L-0guOsbr1MSNjKFe-12">
          <mxGeometry width="50" height="50" relative="1" as="geometry">
            <mxPoint x="330" y="650" as="sourcePoint" />
            <mxPoint x="380" y="600" as="targetPoint" />
          </mxGeometry>
        </mxCell>
        <mxCell id="Oy3L-0guOsbr1MSNjKFe-23" value="" style="endArrow=classic;html=1;rounded=0;exitX=1;exitY=0;exitDx=0;exitDy=0;entryX=1;entryY=1;entryDx=0;entryDy=0;dashed=1;dashPattern=12 12;" edge="1" parent="1" source="Oy3L-0guOsbr1MSNjKFe-1" target="Oy3L-0guOsbr1MSNjKFe-14">
          <mxGeometry width="50" height="50" relative="1" as="geometry">
            <mxPoint x="330" y="650" as="sourcePoint" />
            <mxPoint x="380" y="600" as="targetPoint" />
          </mxGeometry>
        </mxCell>
        <mxCell id="Oy3L-0guOsbr1MSNjKFe-24" value="" style="endArrow=classic;html=1;rounded=0;entryX=0;entryY=1;entryDx=0;entryDy=0;dashed=1;dashPattern=12 12;" edge="1" parent="1" target="Oy3L-0guOsbr1MSNjKFe-16">
          <mxGeometry width="50" height="50" relative="1" as="geometry">
            <mxPoint x="330" y="670" as="sourcePoint" />
            <mxPoint x="380" y="600" as="targetPoint" />
          </mxGeometry>
        </mxCell>
        <mxCell id="Oy3L-0guOsbr1MSNjKFe-25" value="" style="endArrow=classic;html=1;rounded=0;entryX=1;entryY=1;entryDx=0;entryDy=0;exitX=1;exitY=0;exitDx=0;exitDy=0;dashed=1;dashPattern=12 12;" edge="1" parent="1" source="Oy3L-0guOsbr1MSNjKFe-2" target="Oy3L-0guOsbr1MSNjKFe-19">
          <mxGeometry width="50" height="50" relative="1" as="geometry">
            <mxPoint x="390" y="660" as="sourcePoint" />
            <mxPoint x="370" y="580" as="targetPoint" />
          </mxGeometry>
        </mxCell>
        <mxCell id="Oy3L-0guOsbr1MSNjKFe-26" value="0x234000" style="text;html=1;align=center;verticalAlign=middle;resizable=0;points=[];autosize=1;strokeColor=none;fillColor=none;" vertex="1" parent="1">
          <mxGeometry x="440" y="838" width="80" height="30" as="geometry" />
        </mxCell>
        <mxCell id="Oy3L-0guOsbr1MSNjKFe-27" value="type&lt;br&gt;HEAD" style="rounded=0;whiteSpace=wrap;html=1;" vertex="1" parent="1">
          <mxGeometry x="610" y="570" width="70" height="30" as="geometry" />
        </mxCell>
        <mxCell id="Oy3L-0guOsbr1MSNjKFe-28" value="clusterofs&lt;br&gt;1024" style="rounded=0;whiteSpace=wrap;html=1;" vertex="1" parent="1">
          <mxGeometry x="680" y="570" width="70" height="30" as="geometry" />
        </mxCell>
        <mxCell id="Oy3L-0guOsbr1MSNjKFe-29" value="blkaddr&lt;br&gt;0x234000" style="rounded=0;whiteSpace=wrap;html=1;" vertex="1" parent="1">
          <mxGeometry x="750" y="570" width="70" height="30" as="geometry" />
        </mxCell>
        <mxCell id="Oy3L-0guOsbr1MSNjKFe-30" value="" style="endArrow=classic;html=1;rounded=0;entryX=1;entryY=1;entryDx=0;entryDy=0;exitX=0;exitY=0;exitDx=0;exitDy=0;dashed=1;dashPattern=12 12;" edge="1" parent="1" source="Oy3L-0guOsbr1MSNjKFe-5" target="Oy3L-0guOsbr1MSNjKFe-29">
          <mxGeometry width="50" height="50" relative="1" as="geometry">
            <mxPoint x="420" y="680" as="sourcePoint" />
            <mxPoint x="600" y="600" as="targetPoint" />
          </mxGeometry>
        </mxCell>
        <mxCell id="Oy3L-0guOsbr1MSNjKFe-31" value="" style="endArrow=classic;html=1;rounded=0;entryX=0;entryY=1;entryDx=0;entryDy=0;exitX=0;exitY=0;exitDx=0;exitDy=0;dashed=1;dashPattern=12 12;" edge="1" parent="1" source="Oy3L-0guOsbr1MSNjKFe-3" target="Oy3L-0guOsbr1MSNjKFe-27">
          <mxGeometry width="50" height="50" relative="1" as="geometry">
            <mxPoint x="420" y="680" as="sourcePoint" />
            <mxPoint x="590" y="610" as="targetPoint" />
          </mxGeometry>
        </mxCell>
        <mxCell id="Oy3L-0guOsbr1MSNjKFe-32" value="8192" style="text;html=1;align=center;verticalAlign=middle;resizable=0;points=[];autosize=1;strokeColor=none;fillColor=none;" vertex="1" parent="1">
          <mxGeometry x="390" y="720" width="50" height="30" as="geometry" />
        </mxCell>
      </root>
    </mxGraphModel>
  </diagram>
</mxfile>
